<?xml version="1.0" encoding="utf-8"?>
<!-- Generator: Adobe Illustrator 16.0.0, SVG Export Plug-In . SVG Version: 6.00 Build 0)  -->
<!DOCTYPE svg PUBLIC "-//W3C//DTD SVG 1.1//EN" "http://www.w3.org/Graphics/SVG/1.1/DTD/svg11.dtd">
<svg version="1.1" id="Layer_1" xmlns="http://www.w3.org/2000/svg" xmlns:xlink="http://www.w3.org/1999/xlink" x="0px" y="0px"
	 width="386px" height="202px" viewBox="0 0 386 202" enable-background="new 0 0 386 202" xml:space="preserve">
<g>
	<g>
		<path fill="#FFFFFF" d="M13.042,185.622c8.39,0,16.51,0.005,24.631-0.001c7.12-0.007,7.125-0.014,7.128-6.99
			c0.004-10.792,0.001-21.584,0.001-32.377c0.494-0.318,0.988-0.64,1.481-0.96c1.424,1.312,3.282,2.376,4.202,3.979
			c6.212,10.816,12.306,21.707,18.245,32.676c1.459,2.695,3.188,3.795,6.267,3.732c8.823-0.177,17.651-0.039,26.476-0.095
			c1.354-0.008,2.705-0.372,4.619-0.651c-1.214-2.332-2.001-3.959-2.888-5.529c-8.424-14.92-16.797-29.869-25.365-44.707
			c-1.515-2.623-1.627-4.551-0.083-7.229c7.226-12.539,14.216-25.213,21.278-37.844c1.357-2.427,2.664-4.881,4.299-7.881
			c-2.089-0.197-3.529-0.445-4.97-0.451c-8.493-0.038-16.989,0.102-25.478-0.085c-3.108-0.067-4.764,1.097-6.155,3.812
			c-5.689,11.1-11.559,22.106-17.458,33.097c-0.768,1.433-2.091,2.563-3.157,3.837c-0.438-0.253-0.876-0.507-1.315-0.759
			c0-9.142,0-18.279,0-27.419c0-12.506,0-12.506-12.556-12.506c-6.4,0-12.799,0-19.204,0
			C13.042,116.468,13.042,150.709,13.042,185.622z M321.283,156.257c0.425-0.126,0.849-0.252,1.271-0.377
			c0.804,1.29,1.688,2.537,2.396,3.878c2.481,4.709,5.544,9.237,7.216,14.227c3.262,9.729,9.37,13.146,19.439,11.808
			c6.629-0.882,13.471-0.167,21.354-0.167c-1.408-2.678-2.151-4.268-3.046-5.766c-6.737-11.291-13.611-22.502-20.14-33.912
			c-0.891-1.557-0.865-4.534,0.049-6.076c5.599-9.447,11.585-18.664,17.416-27.975c0.917-1.463,1.7-3.01,2.919-5.184
			c-10.443,0-19.928,0.126-29.402-0.07c-3.125-0.064-4.789,1.06-6.172,3.777c-3.47,6.818-7.217,13.498-10.909,20.201
			c-0.465,0.843-1.271,1.497-2.838,3.287c0-18.307,0-35.206,0-52.168c-10.23,0-19.938,0-29.69,0c0,34.709,0,68.947,0,103.478
			c10.047,0,19.771,0,30.139,0C321.283,175.302,321.283,165.777,321.283,156.257z M207.573,85.656
			c-4.962-12.938-7.248-15.244-19.814-19.807c0-4.043,0.304-8.383-0.092-12.656c-0.347-3.741,0.397-5.995,4.083-7.883
			c6.604-3.381,9.342-10.965,7.498-18.424c-1.688-6.822-7.798-11.904-14.676-12.201c-7.953-0.345-14.832,4.692-16.695,12.227
			c-1.979,7.999,1.568,15.57,8.757,19.326c1.665,0.869,3.964,2.504,4.101,3.962c0.498,5.257,0.195,10.588,0.195,16.174
			c-1.697,0.699-4.119,1.188-5.887,2.537c-3.084,2.353-5.277,1.813-7.499-1.013c-0.917-1.168-2.058-2.193-3.219-3.129
			c-3.493-2.812-5.535-5.522-4.476-10.856c1.407-7.076-4.984-13.272-12.172-13.345c-7.213-0.068-13.031,5.896-12.779,13.099
			c0.263,7.495,6.831,13.87,13.947,12.099c5.291-1.316,8.055,0.655,11.102,3.984c2.119,2.316,4.541,4.355,6.701,6.398
			c-0.892,2.11-1.703,3.761-2.295,5.484c-3.75,10.942,1.283,22.69,11.778,27.6c10.122,4.732,23.435,1.558,27.392-8.775
			c3.354-8.768,8.82-8.689,15.672-8.427c1.164,0.044,2.349,0.095,3.494-0.067c3.146-0.443,4.932,0.527,6.479,3.668
			c3.369,6.834,11.143,9.949,18.148,8.03c7.392-2.024,12.224-8.572,12.072-16.356c-0.158-8.104-5.216-14.312-13.078-16.052
			c-7.201-1.591-14.404,2.363-17.986,9.513c-0.814,1.627-2.528,3.713-4.049,3.912C218.857,85.391,213.346,85.379,207.573,85.656z
			 M279.759,110.379c-7.844-4.359-20.188-6.084-32.645-4.789c-16.438,1.71-28.032,11.266-31.634,27.317
			c-1.467,6.545-1.883,13.612-1.221,20.288c1.416,14.238,7.299,26.103,21.92,31.143c13.387,4.616,26.871,3.475,40.239-0.568
			c2.71-0.82,3.169-2.322,2.261-4.891c-1.605-4.542-3.151-9.126-4.337-13.79c-0.84-3.312-2.286-3.659-5.375-2.767
			c-3.31,0.957-6.873,1.298-10.34,1.391c-7.085,0.188-11.329-3.25-12.369-10.338c-0.597-4.062-0.698-8.311-0.254-12.393
			c1.062-9.748,5.933-13.477,15.511-12.332c3.76,0.449,7.487,1.146,11.662,1.797C275.364,123.782,277.528,117.188,279.759,110.379z
			 M155.211,165.088c-8.541-2.857-9.833-4.561-9.855-13.242c-0.055-21.468-0.014-42.935-0.034-64.4
			c-0.001-1.91-0.173-3.821-0.284-6.127c-9.353,0-18.155-0.133-26.941,0.18c-1.032,0.037-2.755,2.49-2.827,3.893
			c-0.314,6.142-0.185,12.308-0.133,18.465c0.162,19.127-0.078,38.272,0.669,57.377c0.761,19.457,20.036,27.599,36.172,25.113
			C153.038,179.368,154.109,172.335,155.211,165.088z M200.734,185.325c0-24.089,0-47.563,0-71.653
			c-9.895,5.287-19.527,5.305-29.504,0.891c0,23.885,0,47.18,0,70.765C181.211,185.325,190.788,185.325,200.734,185.325z"/>
	</g>
	<path fill="#FFFFFF" d="M13.042,185.622c0-34.913,0-69.154,0-104.353c6.405,0,12.804,0,19.204,0c12.556,0,12.556,0,12.556,12.506
		c0,9.14,0,18.279,0,27.418c0.438,0.253,0.877,0.507,1.315,0.76c1.066-1.271,2.389-2.404,3.157-3.836
		c5.899-10.99,11.769-21.998,17.458-33.098c1.391-2.715,3.047-3.879,6.155-3.812c8.489,0.187,16.984,0.047,25.478,0.085
		c1.44,0.006,2.881,0.254,4.97,0.451c-1.635,3-2.941,5.454-4.299,7.881c-7.062,12.631-14.052,25.307-21.278,37.844
		c-1.544,2.68-1.432,4.604,0.083,7.229c8.568,14.838,16.941,29.787,25.365,44.707c0.887,1.57,1.674,3.197,2.888,5.529
		c-1.914,0.279-3.266,0.646-4.619,0.651c-8.825,0.056-17.653-0.082-26.476,0.095c-3.079,0.062-4.808-1.037-6.267-3.732
		c-5.939-10.969-12.033-21.857-18.245-32.676c-0.92-1.604-2.778-2.666-4.202-3.979c-0.494,0.32-0.988,0.642-1.481,0.96
		c0,10.793,0.003,21.585-0.001,32.377c-0.003,6.979-0.008,6.982-7.128,6.99C29.552,185.627,21.432,185.622,13.042,185.622z"/>
	<path fill="#FFFFFF" d="M321.283,156.257c0,9.521,0,19.045,0,28.96c-10.366,0-20.092,0-30.14,0c0-34.529,0-68.769,0-103.479
		c9.755,0,19.46,0,29.691,0c0,16.963,0,33.863,0,52.169c1.565-1.79,2.373-2.444,2.838-3.287c3.692-6.703,7.439-13.384,10.909-20.201
		c1.383-2.719,3.047-3.843,6.172-3.778c9.477,0.197,18.959,0.071,29.402,0.071c-1.219,2.174-2.002,3.72-2.919,5.183
		c-5.831,9.312-11.817,18.527-17.416,27.976c-0.914,1.542-0.938,4.521-0.05,6.075c6.527,11.41,13.401,22.621,20.141,33.912
		c0.895,1.498,1.638,3.088,3.046,5.767c-7.883,0-14.725-0.715-21.354,0.167c-10.068,1.34-16.179-2.079-19.438-11.809
		c-1.672-4.986-4.732-9.517-7.216-14.226c-0.707-1.341-1.593-2.588-2.396-3.878C322.132,156.005,321.708,156.131,321.283,156.257z"
		/>
	<path fill="#FFFFFF" d="M207.573,85.656c5.771-0.277,11.284-0.268,16.702-0.979c1.521-0.2,3.231-2.286,4.048-3.913
		c3.584-7.147,10.786-11.103,17.985-9.512c7.864,1.738,12.922,7.945,13.08,16.051c0.149,7.785-4.683,14.334-12.074,16.357
		c-7.006,1.919-14.778-1.196-18.146-8.03c-1.548-3.141-3.333-4.11-6.479-3.668c-1.146,0.162-2.33,0.111-3.492,0.067
		c-6.854-0.264-12.316-0.34-15.674,8.427c-3.957,10.333-17.269,13.509-27.391,8.774c-10.496-4.907-15.529-16.655-11.779-27.599
		c0.592-1.725,1.404-3.374,2.295-5.483c-2.16-2.043-4.582-4.084-6.701-6.399c-3.047-3.329-5.809-5.302-11.102-3.983
		c-7.115,1.771-13.684-4.604-13.946-12.1c-0.252-7.203,5.566-13.167,12.778-13.098c7.188,0.07,13.58,6.268,12.174,13.344
		c-1.062,5.334,0.98,8.045,4.475,10.855c1.162,0.937,2.302,1.963,3.219,3.129c2.223,2.828,4.415,3.365,7.499,1.014
		c1.767-1.348,4.188-1.838,5.888-2.537c0-5.586,0.301-10.917-0.195-16.174c-0.139-1.458-2.437-3.092-4.102-3.963
		c-7.188-3.754-10.736-11.326-8.757-19.325c1.863-7.533,8.742-12.57,16.694-12.228c6.879,0.299,12.99,5.379,14.677,12.202
		c1.844,7.458-0.896,15.042-7.498,18.425c-3.685,1.887-4.431,4.141-4.083,7.883c0.396,4.272,0.092,8.611,0.092,12.654
		C200.325,70.412,202.611,72.721,207.573,85.656z"/>
	<path fill="#FFFFFF" d="M279.759,110.379c-2.229,6.809-4.395,13.403-6.579,20.069c-4.175-0.651-7.902-1.349-11.662-1.798
		c-9.578-1.145-14.447,2.584-15.511,12.332c-0.442,4.082-0.343,8.328,0.255,12.393c1.039,7.088,5.283,10.525,12.368,10.338
		c3.467-0.093,7.03-0.434,10.34-1.39c3.089-0.896,4.535-0.546,5.375,2.766c1.187,4.664,2.729,9.248,4.337,13.79
		c0.908,2.566,0.449,4.066-2.261,4.891c-13.368,4.043-26.854,5.187-40.239,0.568c-14.619-5.04-20.504-16.9-21.92-31.143
		c-0.662-6.676-0.246-13.743,1.223-20.288c3.6-16.056,15.192-25.607,31.633-27.317C259.571,104.295,271.915,106.02,279.759,110.379z
		"/>
	<path fill="#FFFFFF" d="M155.211,165.088c-1.104,7.247-2.173,14.28-3.234,21.258c-16.136,2.483-35.411-5.654-36.171-25.111
		c-0.747-19.105-0.507-38.252-0.669-57.379c-0.052-6.157-0.182-12.323,0.133-18.465c0.072-1.401,1.795-3.854,2.827-3.893
		c8.786-0.312,17.589-0.18,26.941-0.18c0.111,2.306,0.283,4.217,0.284,6.127c0.021,21.467-0.021,42.934,0.034,64.4
		C145.378,160.527,146.67,162.229,155.211,165.088z"/>
	<path fill="#FFFFFF" d="M200.734,185.325c-9.945,0-19.522,0-29.504,0c0-23.584,0-46.88,0-70.765
		c9.977,4.414,19.61,4.396,29.504-0.891C200.734,137.762,200.734,161.236,200.734,185.325z"/>
</g>
</svg>
