<?xml version="1.0" encoding="utf-8"?>
<!-- Generator: Adobe Illustrator 16.0.0, SVG Export Plug-In . SVG Version: 6.00 Build 0)  -->
<!DOCTYPE svg PUBLIC "-//W3C//DTD SVG 1.1//EN" "http://www.w3.org/Graphics/SVG/1.1/DTD/svg11.dtd">
<svg version="1.1" id="Layer_1" xmlns="http://www.w3.org/2000/svg" xmlns:xlink="http://www.w3.org/1999/xlink" x="0px" y="0px"
	 width="553.514px" height="284px" viewBox="149.784 138.14 553.514 284" enable-background="new 149.784 138.14 553.514 284"
	 xml:space="preserve">
<g>
	<polygon fill="#FFFFFF" points="149.784,254.205 198.34,254.205 198.34,316.861 203.481,316.607 236.327,254.205 288.596,254.205 
		288.596,255.224 246.325,330.871 292.595,412.884 292.595,414.921 239.469,414.921 204.909,352.775 198.34,353.028 198.34,414.921 
		149.784,414.921 	"/>
	<path fill="#FFFFFF" d="M475.519,308.33c10.568-11.462,25.943-17.193,46.131-17.193c14.279,0,27.322,2.377,39.129,7.132
		l-10.281,31.838c-7.619-2.547-15.232-3.821-22.852-3.821c-13.328,0-19.992,9.34-19.992,28.019c0,18.678,6.664,28.017,19.992,28.017
		c7.234,0,14.854-1.359,22.852-4.074l9.996,32.092c-11.424,4.756-24.375,7.133-38.844,7.133c-21.326,0-36.99-5.646-46.986-16.938
		c-9.996-11.293-14.996-26.701-14.996-46.229C459.667,335.115,464.951,319.791,475.519,308.33"/>
	<path fill="#FFFFFF" d="M534.402,255.36c-1.264-12.666-11.158-22.549-23.531-23.501c-0.693-0.053-1.387-0.079-2.078-0.079
		c-12.779,0-22.836,8.356-25.777,21.345l-31.121,0.809c-0.24-1.801-0.52-3.37-0.994-4.96c-3.889-13.027-15.029-22.624-28.494-24.611
		c-0.201-9.865-0.406-18.215-0.73-26.669c-0.072-1.897,0.367-2.542,2.137-3.142c11.951-4.05,18.678-15.205,17.131-28.419
		c-1.295-11.058-11.326-20.618-22.84-21.764c-0.887-0.088-1.785-0.133-2.671-0.133c-12.585,0-23.329,9.096-25.546,21.629
		c-2.339,13.216,6.083,26.112,19.174,29.359c1.519,0.377,1.852,0.781,1.879,2.275c0.124,6.73,0.303,13.459,0.48,20.189l0.18,6.862
		c-1.408,0.205-2.858,0.428-4.306,0.86c-4.335,1.294-8.311,3.372-11.83,6.183l-1.362-1.307c-2.651-2.544-5.453-5.233-8.291-7.944
		l-1.906-1.828c-2.106-2.023-4.283-4.116-6.502-6.098c-0.941-0.84-1.032-1.326-0.489-2.597c4.428-10.352-0.212-21.972-10.562-26.456
		c-2.496-1.08-5.138-1.628-7.854-1.628c-7.929,0-15.142,4.663-18.376,11.88c-3.393,7.571-1.762,16.581,4.055,22.42
		c3.739,3.754,8.916,5.907,14.201,5.907c2.932,0,5.756-0.634,8.396-1.886c1.645-0.78,2.29-0.7,3.624,0.61
		c5.458,5.365,11.122,10.696,16.602,15.852l1.245,1.177c-5.821,8.765-7.47,19.413-4.514,29.322
		c1.141,3.819,3.053,7.525,5.685,11.013c2.06,2.731,4.544,5.158,7.383,7.216c6.12,4.436,13.268,6.781,20.673,6.781
		c3.328,0,6.648-0.487,9.867-1.447c12.756-3.806,22.047-14.308,24.381-27.497l31.744-0.826c2.625,8.613,7.992,14.546,15.957,17.641
		c5.705,2.217,11.699,2.304,17.678,0.261C528.472,278.268,535.589,267.249,534.402,255.36"/>
	<path fill="#FFFFFF" d="M428.675,304.437c-3.934,1.173-7.993,1.768-12.064,1.768c-8.137,0-15.998-2.33-22.916-6.728v23.497v91.947
		h45.701V299.527C436.117,301.615,432.529,303.287,428.675,304.437"/>
	<path fill="#FFFFFF" d="M308.013,369.076c0,32.262,18.566,48.393,55.697,48.393l5.141-34.385c-10.092,0-15.138-5.518-15.138-16.556
		V254.205h-45.7V369.076L308.013,369.076z"/>
	<polygon fill="#FFFFFF" points="700.158,293.683 649.031,293.683 626.751,334.946 624.181,334.946 624.181,254.204 
		578.482,254.204 578.482,414.921 624.181,414.921 624.181,369.076 627.892,368.82 651.601,414.921 703.298,414.921 
		703.298,412.882 665.31,349.208 	"/>
</g>
</svg>
